<svg width="128" height="128" viewBox="0 0 128 128" fill="none" xmlns="http://www.w3.org/2000/svg">
<g clip-path="url(#clip0_2_2)">
<rect width="128" height="128" rx="20" fill="url(#paint0_linear_2_2)"/>
<path d="M29.35 93C27.0833 93 25.2167 92.7 23.75 92.1C22.3167 91.5 21.1833 90.7667 20.35 89.9C19.55 89.0667 18.9667 88.2167 18.6 87.35C18.2667 86.5167 18.0833 85.85 18.05 85.35C18.0167 85.0167 18.1167 84.7333 18.35 84.5C18.6167 84.2667 18.9 84.15 19.2 84.15H21.6C21.9 84.15 22.15 84.2167 22.35 84.35C22.55 84.4833 22.7167 84.7667 22.85 85.2C23.05 85.7 23.35 86.25 23.75 86.85C24.15 87.4833 24.7667 88.0167 25.6 88.45C26.4333 88.9167 27.6 89.15 29.1 89.15C30.6667 89.15 31.9833 88.9333 33.05 88.5C34.1167 88.1 34.9167 87.3667 35.45 86.3C36.0167 85.2667 36.3 83.8333 36.3 82V78.6C35.5 79.6333 34.45 80.5 33.15 81.2C31.85 81.8667 30.2167 82.2 28.25 82.2C26.3833 82.2 24.7833 81.8833 23.45 81.25C22.1167 80.5833 21.0167 79.7 20.15 78.6C19.3167 77.4667 18.6833 76.1833 18.25 74.75C17.85 73.3167 17.6167 71.8167 17.55 70.25C17.5167 69.3167 17.5167 68.4 17.55 67.5C17.6167 65.9333 17.85 64.4333 18.25 63C18.6833 61.5667 19.3167 60.2833 20.15 59.15C21.0167 58.0167 22.1167 57.1333 23.45 56.5C24.7833 55.8333 26.3833 55.5 28.25 55.5C30.25 55.5 31.9 55.8833 33.2 56.65C34.5333 57.3833 35.6167 58.2833 36.45 59.35V57.2C36.45 56.8667 36.55 56.5833 36.75 56.35C36.9833 56.1167 37.2667 56 37.6 56H39.9C40.2333 56 40.5167 56.1167 40.75 56.35C40.9833 56.5833 41.1 56.8667 41.1 57.2V81.45C41.1 83.6833 40.7167 85.6667 39.95 87.4C39.2167 89.1333 37.9833 90.5 36.25 91.5C34.55 92.5 32.25 93 29.35 93ZM29.25 78.2C30.9167 78.2 32.25 77.8167 33.25 77.05C34.2833 76.2833 35.0333 75.3167 35.5 74.15C36 72.9833 36.2667 71.8 36.3 70.6C36.3333 70.1333 36.35 69.5667 36.35 68.9C36.35 68.2 36.3333 67.6167 36.3 67.15C36.2667 65.95 36 64.7667 35.5 63.6C35.0333 62.4333 34.2833 61.4667 33.25 60.7C32.25 59.9333 30.9167 59.55 29.25 59.55C27.5833 59.55 26.25 59.9333 25.25 60.7C24.25 61.4333 23.5333 62.4167 23.1 63.65C22.6667 64.85 22.4167 66.15 22.35 67.55C22.3167 68.4167 22.3167 69.3 22.35 70.2C22.4167 71.6 22.6667 72.9167 23.1 74.15C23.5333 75.35 24.25 76.3333 25.25 77.1C26.25 77.8333 27.5833 78.2 29.25 78.2ZM59.184 82.5C56.6507 82.5 54.534 82.0167 52.834 81.05C51.134 80.0833 49.834 78.75 48.934 77.05C48.034 75.3167 47.534 73.35 47.434 71.15C47.4007 70.5833 47.384 69.8667 47.384 69C47.384 68.1 47.4007 67.3833 47.434 66.85C47.534 64.6167 48.034 62.65 48.934 60.95C49.8673 59.25 51.184 57.9167 52.884 56.95C54.584 55.9833 56.684 55.5 59.184 55.5C61.684 55.5 63.784 55.9833 65.484 56.95C67.184 57.9167 68.484 59.25 69.384 60.95C70.3173 62.65 70.834 64.6167 70.934 66.85C70.9673 67.3833 70.984 68.1 70.984 69C70.984 69.8667 70.9673 70.5833 70.934 71.15C70.834 73.35 70.334 75.3167 69.434 77.05C68.534 78.75 67.234 80.0833 65.534 81.05C63.834 82.0167 61.7173 82.5 59.184 82.5ZM59.184 78.65C61.2507 78.65 62.9007 78 64.134 76.7C65.3673 75.3667 66.034 73.4333 66.134 70.9C66.1673 70.4 66.184 69.7667 66.184 69C66.184 68.2333 66.1673 67.6 66.134 67.1C66.034 64.5667 65.3673 62.65 64.134 61.35C62.9007 60.0167 61.2507 59.35 59.184 59.35C57.1173 59.35 55.4507 60.0167 54.184 61.35C52.9507 62.65 52.3007 64.5667 52.234 67.1C52.2007 67.6 52.184 68.2333 52.184 69C52.184 69.7667 52.2007 70.4 52.234 70.9C52.3007 73.4333 52.9507 75.3667 54.184 76.7C55.4507 78 57.1173 78.65 59.184 78.65ZM79.0449 82C78.7116 82 78.4283 81.9 78.1949 81.7C77.9949 81.4667 77.8949 81.1833 77.8949 80.85V48.2C77.8949 47.8333 77.9949 47.55 78.1949 47.35C78.4283 47.1167 78.7116 47 79.0449 47H81.5449C81.9449 47 82.2449 47.1 82.4449 47.3C82.6449 47.5 82.7616 47.6667 82.7949 47.8L93.3949 68L104.045 47.8C104.112 47.6667 104.228 47.5 104.395 47.3C104.595 47.1 104.895 47 105.295 47H107.745C108.112 47 108.395 47.1167 108.595 47.35C108.828 47.55 108.945 47.8333 108.945 48.2V80.85C108.945 81.1833 108.828 81.4667 108.595 81.7C108.395 81.9 108.112 82 107.745 82H105.295C104.962 82 104.678 81.9 104.445 81.7C104.245 81.4667 104.145 81.1833 104.145 80.85V56.25L95.7949 72.55C95.6616 72.8833 95.4616 73.15 95.1949 73.35C94.9283 73.5167 94.5949 73.6 94.1949 73.6H92.6449C92.2116 73.6 91.8616 73.5167 91.5949 73.35C91.3616 73.15 91.1616 72.8833 90.9949 72.55L82.6449 56.25V80.85C82.6449 81.1833 82.5283 81.4667 82.2949 81.7C82.0949 81.9 81.8283 82 81.4949 82H79.0449Z" fill="white"/>
</g>
<defs>
<linearGradient id="paint0_linear_2_2" x1="64" y1="0" x2="64" y2="128" gradientUnits="userSpaceOnUse">
<stop stop-color="#2499CB"/>
<stop offset="0.307292" stop-color="#2284BB" stop-opacity="0.772615"/>
<stop offset="0.760417" stop-color="#61A6BC" stop-opacity="0.772615"/>
</linearGradient>
<clipPath id="clip0_2_2">
<rect width="128" height="128" fill="white"/>
</clipPath>
</defs>
</svg>
